<?xml version="1.0" encoding="UTF-8" standalone="no"?>
<!DOCTYPE svg PUBLIC "-//W3C//DTD SVG 1.1//EN"
 "http://www.w3.org/Graphics/SVG/1.1/DTD/svg11.dtd">
<!-- Generated by graphviz version 2.38.0 (20140413.2041)
 -->
<!-- Title: G Pages: 1 -->
<svg width="440pt" height="338pt"
 viewBox="0.00 0.00 440.24 338.43" xmlns="http://www.w3.org/2000/svg" xmlns:xlink="http://www.w3.org/1999/xlink">
<g id="graph0" class="graph" transform="scale(1 1) rotate(0) translate(4 334.426)">
<title>G</title><style>.edge>path:hover{stroke-width:8}</style>
<polygon fill="white" stroke="none" points="-4,4 -4,-334.426 436.244,-334.426 436.244,4 -4,4"/>
<!-- features -->
<g id="node1" class="node"><title>features</title><style>.edge>path:hover{stroke-width:8}</style>
<ellipse fill="#793434" stroke="black" cx="231.376" cy="-18" rx="30.0436" ry="18"/>
<text text-anchor="middle" x="231.376" y="-15.5" font-family="Helvetica,sans-Serif" font-size="10.00" fill="#ffffff">features</text>
</g>
<!-- filter -->
<g id="node2" class="node"><title>filter</title><style>.edge>path:hover{stroke-width:8}</style>
<ellipse fill="#a48546" stroke="black" cx="51.3756" cy="-90" rx="27" ry="18"/>
<text text-anchor="middle" x="51.3756" y="-87.5" font-family="Helvetica,sans-Serif" font-size="10.00" fill="#000000">filter</text>
</g>
<!-- filter&#45;&gt;features -->
<g id="edge1" class="edge"><title>filter&#45;&gt;features</title><style>.edge>path:hover{stroke-width:8}</style>
<path fill="none" stroke="black" d="M74.1727,-80.1345C105.216,-68.0622 161.041,-46.3522 197.131,-32.3173"/>
<polygon fill="#a48546" stroke="black" points="198.698,-35.4633 206.75,-28.5767 196.161,-28.9392 198.698,-35.4633"/>
</g>
<!-- kalmanfilter -->
<g id="node3" class="node"><title>kalmanfilter</title><style>.edge>path:hover{stroke-width:8}</style>
<ellipse fill="#91b34c" stroke="black" cx="281.376" cy="-240.426" rx="38.7041" ry="18"/>
<text text-anchor="middle" x="281.376" y="-237.926" font-family="Helvetica,sans-Serif" font-size="10.00" fill="#000000">kalmanfilter</text>
</g>
<!-- kalmanfilter&#45;&gt;features -->
<g id="edge2" class="edge"><title>kalmanfilter&#45;&gt;features</title><style>.edge>path:hover{stroke-width:8}</style>
<path fill="none" stroke="black" d="M284.95,-222.342C290.089,-194.074 297.309,-136.203 281.376,-91"/>
</g>
<!-- matplotlib -->
<g id="node4" class="node"><title>matplotlib</title><style>.edge>path:hover{stroke-width:8}</style>
<ellipse fill="#2fbc2f" stroke="black" cx="353.376" cy="-90" rx="34.9638" ry="18"/>
<text text-anchor="middle" x="353.376" y="-87.5" font-family="Helvetica,sans-Serif" font-size="10.00" fill="#000000">matplotlib</text>
</g>
<!-- matplotlib&#45;&gt;features -->
<g id="edge3" class="edge"><title>matplotlib&#45;&gt;features</title><style>.edge>path:hover{stroke-width:8}</style>
<path fill="none" stroke="black" d="M330.999,-76.1609C311.377,-64.9022 282.696,-48.4463 261.142,-36.0788"/>
<polygon fill="#2fbc2f" stroke="black" points="262.803,-32.9968 252.387,-31.0558 259.319,-39.0684 262.803,-32.9968"/>
</g>
<!-- matplotlib_pyplot -->
<g id="node5" class="node"><title>matplotlib_pyplot</title><style>.edge>path:hover{stroke-width:8}</style>
<ellipse fill="#3db83d" stroke="black" cx="353.376" cy="-165.213" rx="43.6818" ry="21.4286"/>
<text text-anchor="middle" x="353.376" y="-168.213" font-family="Helvetica,sans-Serif" font-size="10.00" fill="#000000">matplotlib.</text>
<text text-anchor="middle" x="353.376" y="-157.213" font-family="Helvetica,sans-Serif" font-size="10.00" fill="#000000">pyplot</text>
</g>
<!-- matplotlib_pyplot&#45;&gt;features -->
<g id="edge4" class="edge"><title>matplotlib_pyplot&#45;&gt;features</title><style>.edge>path:hover{stroke-width:8}</style>
<path fill="none" stroke="black" d="M328.265,-147.792C311.024,-134.79 289.791,-114.875 281.376,-91"/>
</g>
<!-- matplotlib_pyplot&#45;&gt;matplotlib -->
<g id="edge5" class="edge"><title>matplotlib_pyplot&#45;&gt;matplotlib</title><style>.edge>path:hover{stroke-width:8}</style>
<path fill="none" stroke="black" d="M353.376,-143.819C353.376,-135.965 353.376,-126.864 353.376,-118.451"/>
<polygon fill="#3db83d" stroke="black" points="356.876,-118.31 353.376,-108.31 349.876,-118.31 356.876,-118.31"/>
</g>
<!-- mne -->
<g id="node6" class="node"><title>mne</title><style>.edge>path:hover{stroke-width:8}</style>
<ellipse fill="#26d99d" stroke="black" cx="42.3756" cy="-165.213" rx="27" ry="18"/>
<text text-anchor="middle" x="42.3756" y="-162.713" font-family="Helvetica,sans-Serif" font-size="10.00" fill="#000000">mne</text>
</g>
<!-- mne&#45;&gt;features -->
<g id="edge6" class="edge"><title>mne&#45;&gt;features</title><style>.edge>path:hover{stroke-width:8}</style>
<path fill="none" stroke="black" d="M114.376,-89C137.261,-63.5695 171.6,-44.5413 197.164,-32.7923"/>
<polygon fill="#26d99d" stroke="black" points="198.773,-35.9073 206.49,-28.6476 195.931,-29.5105 198.773,-35.9073"/>
<path fill="none" stroke="black" d="M57.1073,-149.993C71.9402,-135.5 95.2951,-112.202 114.376,-91"/>
</g>
<!-- mne&#45;&gt;filter -->
<g id="edge7" class="edge"><title>mne&#45;&gt;filter</title><style>.edge>path:hover{stroke-width:8}</style>
<path fill="none" stroke="black" d="M44.463,-147.233C45.5231,-138.609 46.8369,-127.921 48.0335,-118.188"/>
<polygon fill="#26d99d" stroke="black" points="51.522,-118.494 49.2683,-108.142 44.5743,-117.64 51.522,-118.494"/>
</g>
<!-- sharpwaves -->
<g id="node10" class="node"><title>sharpwaves</title><style>.edge>path:hover{stroke-width:8}</style>
<ellipse fill="#9d437f" stroke="black" cx="181.376" cy="-90" rx="39.3809" ry="18"/>
<text text-anchor="middle" x="181.376" y="-87.5" font-family="Helvetica,sans-Serif" font-size="10.00" fill="#ffffff">sharpwaves</text>
</g>
<!-- mne&#45;&gt;sharpwaves -->
<g id="edge8" class="edge"><title>mne&#45;&gt;sharpwaves</title><style>.edge>path:hover{stroke-width:8}</style>
<path fill="none" stroke="black" d="M62.4868,-152.751C67.6452,-149.858 73.1991,-146.784 78.3756,-144 101.005,-131.83 126.702,-118.606 146.768,-108.412"/>
<polygon fill="#26d99d" stroke="black" points="148.506,-111.455 155.844,-103.813 145.342,-105.211 148.506,-111.455"/>
</g>
<!-- numpy -->
<g id="node7" class="node"><title>numpy</title><style>.edge>path:hover{stroke-width:8}</style>
<ellipse fill="#06a8f9" stroke="black" cx="281.376" cy="-312.426" rx="27.1572" ry="18"/>
<text text-anchor="middle" x="281.376" y="-309.926" font-family="Helvetica,sans-Serif" font-size="10.00" fill="#000000">numpy</text>
</g>
<!-- numpy&#45;&gt;features -->
<g id="edge9" class="edge"><title>numpy&#45;&gt;features</title><style>.edge>path:hover{stroke-width:8}</style>
<path fill="none" stroke="black" d="M425.376,-164.213C415.895,-122.444 427.445,-102.501 397.376,-72 363.887,-38.0307 308.677,-25.8002 271.208,-21.4163"/>
<polygon fill="#06a8f9" stroke="black" points="271.45,-17.9227 261.143,-20.3763 270.73,-24.8856 271.45,-17.9227"/>
</g>
<!-- numpy&#45;&gt;filter -->
<g id="edge10" class="edge"><title>numpy&#45;&gt;filter</title><style>.edge>path:hover{stroke-width:8}</style>
<path fill="none" stroke="black" d="M259.579,-301.516C235.428,-289.749 196.341,-268.291 169.376,-241.426"/>
<path fill="none" stroke="black" d="M169.376,-239.426C115.409,-185.661 51.1453,-248.06 6.37559,-186.426 -10.5402,-163.139 10.2663,-132.485 28.8586,-112.283"/>
<polygon fill="#06a8f9" stroke="black" points="31.6244,-114.457 36.0522,-104.832 26.5884,-109.595 31.6244,-114.457"/>
</g>
<!-- numpy&#45;&gt;kalmanfilter -->
<g id="edge11" class="edge"><title>numpy&#45;&gt;kalmanfilter</title><style>.edge>path:hover{stroke-width:8}</style>
<path fill="none" stroke="black" d="M281.376,-294.123C281.376,-286.409 281.376,-277.139 281.376,-268.539"/>
<polygon fill="#06a8f9" stroke="black" points="284.876,-268.531 281.376,-258.531 277.876,-268.531 284.876,-268.531"/>
</g>
<!-- numpy&#45;&gt;matplotlib -->
<g id="edge12" class="edge"><title>numpy&#45;&gt;matplotlib</title><style>.edge>path:hover{stroke-width:8}</style>
<path fill="none" stroke="black" d="M425.376,-239.426C435.931,-208.647 432.578,-197.945 425.376,-166.213"/>
<path fill="none" stroke="black" d="M425.376,-164.213C420.153,-141.205 401.088,-122.419 383.888,-109.639"/>
<polygon fill="#06a8f9" stroke="black" points="385.857,-106.745 375.663,-103.856 381.83,-112.471 385.857,-106.745"/>
</g>
<!-- numpy&#45;&gt;matplotlib_pyplot -->
<g id="edge13" class="edge"><title>numpy&#45;&gt;matplotlib_pyplot</title><style>.edge>path:hover{stroke-width:8}</style>
<path fill="none" stroke="black" d="M308.241,-309.012C345.263,-303.963 409.235,-288.493 425.376,-241.426"/>
<path fill="none" stroke="black" d="M425.376,-239.426C432.966,-217.293 413.847,-198.611 393.412,-185.658"/>
<polygon fill="#06a8f9" stroke="black" points="395.035,-182.552 384.647,-180.465 391.466,-188.574 395.035,-182.552"/>
</g>
<!-- pandas -->
<g id="node8" class="node"><title>pandas</title><style>.edge>path:hover{stroke-width:8}</style>
<ellipse fill="#3131c4" stroke="black" cx="225.376" cy="-165.213" rx="28.0137" ry="18"/>
<text text-anchor="middle" x="225.376" y="-162.713" font-family="Helvetica,sans-Serif" font-size="10.00" fill="#ffffff">pandas</text>
</g>
<!-- numpy&#45;&gt;pandas -->
<g id="edge14" class="edge"><title>numpy&#45;&gt;pandas</title><style>.edge>path:hover{stroke-width:8}</style>
<path fill="none" stroke="black" d="M169.376,-239.426C152.353,-221.89 175.572,-199.22 197.077,-183.783"/>
<polygon fill="#06a8f9" stroke="black" points="199.179,-186.585 205.452,-178.046 195.224,-180.81 199.179,-186.585"/>
</g>
<!-- scipy -->
<g id="node9" class="node"><title>scipy</title><style>.edge>path:hover{stroke-width:8}</style>
<ellipse fill="#9724d0" stroke="black" cx="114.376" cy="-165.213" rx="27" ry="18"/>
<text text-anchor="middle" x="114.376" y="-162.713" font-family="Helvetica,sans-Serif" font-size="10.00" fill="#ffffff">scipy</text>
</g>
<!-- numpy&#45;&gt;scipy -->
<g id="edge15" class="edge"><title>numpy&#45;&gt;scipy</title><style>.edge>path:hover{stroke-width:8}</style>
<path fill="none" stroke="black" d="M169.376,-239.426C154.796,-224.406 140.664,-205.469 130.376,-190.617"/>
<polygon fill="#06a8f9" stroke="black" points="133.014,-188.272 124.498,-181.969 127.225,-192.207 133.014,-188.272"/>
</g>
<!-- numpy&#45;&gt;sharpwaves -->
<g id="edge16" class="edge"><title>numpy&#45;&gt;sharpwaves</title><style>.edge>path:hover{stroke-width:8}</style>
<path fill="none" stroke="black" d="M169.376,-239.426C138.207,-207.317 154.674,-150.772 168.608,-117.515"/>
<polygon fill="#06a8f9" stroke="black" points="171.973,-118.558 172.796,-107.995 165.566,-115.739 171.973,-118.558"/>
</g>
<!-- pandas&#45;&gt;features -->
<g id="edge17" class="edge"><title>pandas&#45;&gt;features</title><style>.edge>path:hover{stroke-width:8}</style>
<path fill="none" stroke="black" d="M281.376,-89C275.226,-71.5531 263.321,-54.6016 252.671,-41.7507"/>
<polygon fill="#3131c4" stroke="black" points="255.109,-39.2187 245.926,-33.934 249.809,-43.7917 255.109,-39.2187"/>
<path fill="none" stroke="black" d="M245.255,-152.233C264.664,-138.837 290.1,-115.752 281.376,-91"/>
</g>
<!-- pandas&#45;&gt;sharpwaves -->
<g id="edge18" class="edge"><title>pandas&#45;&gt;sharpwaves</title><style>.edge>path:hover{stroke-width:8}</style>
<path fill="none" stroke="black" d="M215.611,-147.965C210.01,-138.646 202.859,-126.747 196.542,-116.236"/>
<polygon fill="#3131c4" stroke="black" points="199.417,-114.224 191.265,-107.456 193.417,-117.83 199.417,-114.224"/>
</g>
<!-- scipy&#45;&gt;features -->
<g id="edge19" class="edge"><title>scipy&#45;&gt;features</title><style>.edge>path:hover{stroke-width:8}</style>
<path fill="none" stroke="black" d="M108.636,-147.426C104.172,-130.937 100.771,-106.117 114.376,-91"/>
</g>
<!-- scipy&#45;&gt;filter -->
<g id="edge20" class="edge"><title>scipy&#45;&gt;filter</title><style>.edge>path:hover{stroke-width:8}</style>
<path fill="none" stroke="black" d="M101.322,-149.043C92.5634,-138.865 80.8671,-125.272 70.9949,-113.8"/>
<polygon fill="#9724d0" stroke="black" points="73.3726,-111.197 64.197,-105.9 68.0666,-115.763 73.3726,-111.197"/>
</g>
<!-- scipy&#45;&gt;sharpwaves -->
<g id="edge21" class="edge"><title>scipy&#45;&gt;sharpwaves</title><style>.edge>path:hover{stroke-width:8}</style>
<path fill="none" stroke="black" d="M127.934,-149.397C137.13,-139.349 149.478,-125.855 159.989,-114.37"/>
<polygon fill="#9724d0" stroke="black" points="162.741,-116.547 166.91,-106.807 157.577,-111.822 162.741,-116.547"/>
</g>
<!-- sharpwaves&#45;&gt;features -->
<g id="edge22" class="edge"><title>sharpwaves&#45;&gt;features</title><style>.edge>path:hover{stroke-width:8}</style>
<path fill="none" stroke="black" d="M192.972,-72.7646C199.22,-64.0181 207.053,-53.0518 214.012,-43.3084"/>
<polygon fill="#9d437f" stroke="black" points="216.877,-45.319 219.842,-35.1473 211.181,-41.2503 216.877,-45.319"/>
</g>
</g>
</svg>
