<?xml version="1.0" encoding="UTF-8" standalone="no"?>
<!DOCTYPE svg PUBLIC "-//W3C//DTD SVG 1.1//EN"
 "http://www.w3.org/Graphics/SVG/1.1/DTD/svg11.dtd">
<!-- Generated by graphviz version 2.38.0 (20140413.2041)
 -->
<!-- Title: G Pages: 1 -->
<svg width="388pt" height="260pt"
 viewBox="0.00 0.00 387.94 260.00" xmlns="http://www.w3.org/2000/svg" xmlns:xlink="http://www.w3.org/1999/xlink">
<g id="graph0" class="graph" transform="scale(1 1) rotate(0) translate(4 256)">
<title>G</title><style>.edge>path:hover{stroke-width:8}</style>
<polygon fill="white" stroke="none" points="-4,4 -4,-256 383.938,-256 383.938,4 -4,4"/>
<!-- features -->
<g id="node1" class="node"><title>features</title><style>.edge>path:hover{stroke-width:8}</style>
<ellipse fill="#ac4949" stroke="black" cx="65.6751" cy="-90" rx="30.0436" ry="18"/>
<text text-anchor="middle" x="65.6751" y="-87.5" font-family="Helvetica,sans-Serif" font-size="10.00" fill="#ffffff">features</text>
</g>
<!-- run_analysis -->
<g id="node6" class="node"><title>run_analysis</title><style>.edge>path:hover{stroke-width:8}</style>
<ellipse fill="#964096" stroke="black" cx="123.675" cy="-18" rx="41.5911" ry="18"/>
<text text-anchor="middle" x="123.675" y="-15.5" font-family="Helvetica,sans-Serif" font-size="10.00" fill="#ffffff">run_analysis</text>
</g>
<!-- features&#45;&gt;run_analysis -->
<g id="edge1" class="edge"><title>features&#45;&gt;run_analysis</title><style>.edge>path:hover{stroke-width:8}</style>
<path fill="none" stroke="black" d="M78.5472,-73.4647C85.8477,-64.6538 95.1476,-53.4298 103.406,-43.463"/>
<polygon fill="#ac4949" stroke="black" points="106.346,-45.4005 110.031,-35.4672 100.956,-40.9343 106.346,-45.4005"/>
</g>
<!-- numpy -->
<g id="node2" class="node"><title>numpy</title><style>.edge>path:hover{stroke-width:8}</style>
<ellipse fill="#f3f30c" stroke="black" cx="170.675" cy="-234" rx="27.1572" ry="18"/>
<text text-anchor="middle" x="170.675" y="-231.5" font-family="Helvetica,sans-Serif" font-size="10.00" fill="#000000">numpy</text>
</g>
<!-- numpy&#45;&gt;features -->
<g id="edge2" class="edge"><title>numpy&#45;&gt;features</title><style>.edge>path:hover{stroke-width:8}</style>
<path fill="none" stroke="black" d="M7.67513,-161C-0.596544,-140.644 17.2816,-121.726 35.3141,-108.703"/>
<polygon fill="#f3f30c" stroke="black" points="37.7304,-111.295 44.0649,-102.802 33.8169,-105.491 37.7304,-111.295"/>
</g>
<!-- pandas -->
<g id="node3" class="node"><title>pandas</title><style>.edge>path:hover{stroke-width:8}</style>
<ellipse fill="#18dd18" stroke="black" cx="170.675" cy="-162" rx="28.0137" ry="18"/>
<text text-anchor="middle" x="170.675" y="-159.5" font-family="Helvetica,sans-Serif" font-size="10.00" fill="#000000">pandas</text>
</g>
<!-- numpy&#45;&gt;pandas -->
<g id="edge3" class="edge"><title>numpy&#45;&gt;pandas</title><style>.edge>path:hover{stroke-width:8}</style>
<path fill="none" stroke="black" d="M170.675,-215.697C170.675,-207.983 170.675,-198.712 170.675,-190.112"/>
<polygon fill="#f3f30c" stroke="black" points="174.175,-190.104 170.675,-180.104 167.175,-190.104 174.175,-190.104"/>
</g>
<!-- realtime_normalization -->
<g id="node4" class="node"><title>realtime_normalization</title><style>.edge>path:hover{stroke-width:8}</style>
<ellipse fill="#49acac" stroke="black" cx="218.675" cy="-90" rx="67.2153" ry="18"/>
<text text-anchor="middle" x="218.675" y="-87.5" font-family="Helvetica,sans-Serif" font-size="10.00" fill="#000000">realtime_normalization</text>
</g>
<!-- numpy&#45;&gt;realtime_normalization -->
<g id="edge4" class="edge"><title>numpy&#45;&gt;realtime_normalization</title><style>.edge>path:hover{stroke-width:8}</style>
<path fill="none" stroke="black" d="M279.675,-161C289.606,-142.691 273.972,-125.032 256.05,-112.03"/>
<polygon fill="#f3f30c" stroke="black" points="257.98,-109.111 247.738,-106.399 254.054,-114.906 257.98,-109.111"/>
<path fill="none" stroke="black" d="M194.545,-225.472C220.839,-215.744 261.768,-196.014 279.675,-163"/>
</g>
<!-- rereference -->
<g id="node5" class="node"><title>rereference</title><style>.edge>path:hover{stroke-width:8}</style>
<ellipse fill="#4949ac" stroke="black" cx="341.675" cy="-90" rx="38.0276" ry="18"/>
<text text-anchor="middle" x="341.675" y="-87.5" font-family="Helvetica,sans-Serif" font-size="10.00" fill="#ffffff">rereference</text>
</g>
<!-- numpy&#45;&gt;rereference -->
<g id="edge5" class="edge"><title>numpy&#45;&gt;rereference</title><style>.edge>path:hover{stroke-width:8}</style>
<path fill="none" stroke="black" d="M279.675,-161C289.316,-143.226 304.252,-126.177 317.049,-113.355"/>
<polygon fill="#f3f30c" stroke="black" points="319.553,-115.802 324.28,-106.32 314.672,-110.785 319.553,-115.802"/>
</g>
<!-- numpy&#45;&gt;run_analysis -->
<g id="edge6" class="edge"><title>numpy&#45;&gt;run_analysis</title><style>.edge>path:hover{stroke-width:8}</style>
<path fill="none" stroke="black" d="M143.647,-231.907C103.069,-228.548 28.8926,-215.214 7.67513,-163"/>
<path fill="none" stroke="black" d="M7.67513,-161C-7.55165,-123.529 2.50335,-104.43 26.6751,-72 40.1773,-53.8851 61.7765,-41.2223 81.1692,-32.8283"/>
<polygon fill="#f3f30c" stroke="black" points="82.5233,-36.0561 90.4668,-29.0453 79.8851,-29.5722 82.5233,-36.0561"/>
</g>
<!-- pandas&#45;&gt;features -->
<g id="edge7" class="edge"><title>pandas&#45;&gt;features</title><style>.edge>path:hover{stroke-width:8}</style>
<path fill="none" stroke="black" d="M151.903,-148.485C135.608,-137.622 111.795,-121.746 93.3198,-109.43"/>
<polygon fill="#18dd18" stroke="black" points="95.2569,-106.515 84.9949,-103.88 91.374,-112.339 95.2569,-106.515"/>
</g>
<!-- pandas&#45;&gt;realtime_normalization -->
<g id="edge8" class="edge"><title>pandas&#45;&gt;realtime_normalization</title><style>.edge>path:hover{stroke-width:8}</style>
<path fill="none" stroke="black" d="M181.567,-145.116C187.412,-136.592 194.753,-125.886 201.36,-116.251"/>
<polygon fill="#18dd18" stroke="black" points="204.388,-118.024 207.157,-107.797 198.615,-114.065 204.388,-118.024"/>
</g>
<!-- pandas&#45;&gt;rereference -->
<g id="edge9" class="edge"><title>pandas&#45;&gt;rereference</title><style>.edge>path:hover{stroke-width:8}</style>
<path fill="none" stroke="black" d="M193.737,-151.559C222.031,-139.977 270.383,-120.184 304.078,-106.391"/>
<polygon fill="#18dd18" stroke="black" points="305.666,-109.522 313.595,-102.495 303.014,-103.044 305.666,-109.522"/>
</g>
<!-- pandas&#45;&gt;run_analysis -->
<g id="edge10" class="edge"><title>pandas&#45;&gt;run_analysis</title><style>.edge>path:hover{stroke-width:8}</style>
<path fill="none" stroke="black" d="M160.63,-144.83C154.66,-134.6 147.362,-120.912 142.675,-108 135.364,-87.8582 130.467,-64.079 127.478,-46.1694"/>
<polygon fill="#18dd18" stroke="black" points="130.909,-45.4531 125.897,-36.1185 123.994,-46.541 130.909,-45.4531"/>
</g>
<!-- realtime_normalization&#45;&gt;run_analysis -->
<g id="edge11" class="edge"><title>realtime_normalization&#45;&gt;run_analysis</title><style>.edge>path:hover{stroke-width:8}</style>
<path fill="none" stroke="black" d="M196.641,-72.7646C183.478,-63.0652 166.61,-50.636 152.408,-40.1718"/>
<polygon fill="#49acac" stroke="black" points="154.094,-37.0667 143.968,-33.9523 149.942,-42.7021 154.094,-37.0667"/>
</g>
<!-- rereference&#45;&gt;run_analysis -->
<g id="edge12" class="edge"><title>rereference&#45;&gt;run_analysis</title><style>.edge>path:hover{stroke-width:8}</style>
<path fill="none" stroke="black" d="M312.415,-78.1787C306.557,-76.0794 300.433,-73.9326 294.675,-72 251.498,-57.5088 201.723,-42.242 167.05,-31.8355"/>
<polygon fill="#4949ac" stroke="black" points="167.828,-28.4151 157.244,-28.9013 165.821,-35.1213 167.828,-28.4151"/>
</g>
</g>
</svg>
